<?xml version="1.0" encoding="utf-8"?>
<!-- Generator: Adobe Illustrator 20.1.0, SVG Export Plug-In . SVG Version: 6.00 Build 0)  -->
<svg version="1.1" id="Capa_1" xmlns="http://www.w3.org/2000/svg" xmlns:xlink="http://www.w3.org/1999/xlink" x="0px" y="0px"
	 viewBox="0 0 326 57" style="enable-background:new 0 0 326 57;" xml:space="preserve">
<style type="text/css">
	.st0{fill:#070308;}
</style>
<polygon class="st0" points="163.9,26.5 159.6,17.8 155.4,26.5 145.8,27.9 152.7,34.7 151.1,44.2 159.6,39.7 168.2,44.2 166.6,34.7 
	173.5,27.9 "/>
<polygon class="st0" points="195.3,27.3 191.7,20.2 188.2,27.3 180.4,28.4 186.1,34 184.7,41.8 191.7,38.1 198.8,41.8 197.4,34 
	203.1,28.4 "/>
<polygon class="st0" points="131.1,27.3 127.6,20.2 124,27.3 116.2,28.4 121.9,34 120.5,41.8 127.6,38.1 134.6,41.8 133.2,34 
	138.9,28.4 "/>
<g>
	<polygon points="110.5,36.2 31.5,36.2 26.5,31.4 110.5,31.4 	"/>
	<polygon points="209.2,36.2 288.2,36.2 293.2,31.4 209.2,31.4 	"/>
</g>
</svg>
