<?xml version="1.0" encoding="utf-8"?>
<!-- Generator: Adobe Illustrator 20.1.0, SVG Export Plug-In . SVG Version: 6.00 Build 0)  -->
<svg version="1.1" id="Capa_1" xmlns="http://www.w3.org/2000/svg" xmlns:xlink="http://www.w3.org/1999/xlink" x="0px" y="0px"
	 viewBox="0 0 91.5 82" style="enable-background:new 0 0 91.5 82;" xml:space="preserve">
<style type="text/css">
	.st0{fill:#374D96;}
	.st1{fill:#123387;}
	.st2{fill:#FFFFFF;}
</style>
<g>
	<g>
		<polygon class="st0" points="5.8,25.4 45.8,72.9 86.2,25.4 71,8 21,8 		"/>
		<polygon class="st1" points="7.9,25.2 45.8,71 84.1,25.2 69.7,8.5 22.3,8.5 		"/>
		<rect x="7.9" y="24.4" class="st0" width="77" height="1.8"/>
		<rect x="17.1" y="46.6" transform="matrix(0.235 0.972 -0.972 0.235 76.9071 -2.6766)" class="st0" width="46.2" height="1.8"/>
		<polygon class="st0" points="46.5,71.4 60.5,24.7 58.4,24.4 44.8,70.8 		"/>
		
			<rect x="17.7" y="16.4" transform="matrix(0.6259 0.7799 -0.7799 0.6259 24.0942 -15.7179)" class="st0" width="21.4" height="1.8"/>
		
			<rect x="43.1" y="16" transform="matrix(0.6259 0.7799 -0.7799 0.6259 33.3383 -35.6104)" class="st0" width="21.4" height="1.8"/>
		
			<rect x="30.2" y="16.4" transform="matrix(-0.6259 0.7799 -0.7799 -0.6259 80.0202 -3.869)" class="st0" width="21.4" height="1.8"/>
		
			<rect x="53.4" y="16.4" transform="matrix(-0.6259 0.7799 -0.7799 -0.6259 117.6916 -21.9386)" class="st0" width="21.4" height="1.8"/>
	</g>
	<path class="st2" d="M47.6,44.8c-2-0.2-4-0.3-5.8-0.7c-3.5-0.7-5.9-2.9-7.3-6.2c-1.5-3.7-1.6-7.5-0.4-11.3c1.1-3.3,3.4-5.3,6.6-6.4
		c4-1.4,7.9-1.4,11.7,0.5c3.6,1.9,5.3,5,5.9,8.9c0.4,2.6,0,5.2-0.8,7.7c-1,3-2.9,5.3-6,6.4c0.9,3,3.6,4.2,6.1,2.5
		c0.3-0.2,0.7-0.3,1.1-0.4c-0.2,0.4-0.3,0.8-0.5,1.1c-1.3,1.3-2.9,2.2-4.7,2.3c-2.3,0.2-5.1-1.8-5.8-4C47.7,45,47.6,44.8,47.6,44.8z
		 M50.6,41.1c1.5-1.6,2.4-3.2,2.7-6c0.5-3.8-0.2-7.5-2.1-10.9c-1.2-2.1-3-3.5-5.5-3.6c-3.1-0.1-5.6,1.8-6.6,4.9
		c-1.1,3.3-0.9,6.6,0,9.8c0.4,1.6,1,3.1,2.1,4.6c0.4-1.7,1.3-2.8,3-3.1c1.4-0.2,2.7,0.1,3.7,1.1C48.7,38.9,49.6,40,50.6,41.1z
		 M47.2,43.2c-0.2-0.4-0.3-0.6-0.4-0.9c-0.5-0.9-1-1.9-1.7-2.7c-0.3-0.3-1.1-0.5-1.6-0.4c-0.7,0.1-1.1,0.8-1.2,1.5
		c-0.1,0.6,0.2,1.1,0.7,1.4C44.3,42.9,45.6,43.1,47.2,43.2z"/>
</g>
</svg>
