<?xml version="1.0" encoding="utf-8"?>
<!-- Generator: Adobe Illustrator 20.1.0, SVG Export Plug-In . SVG Version: 6.00 Build 0)  -->
<svg version="1.1" id="Capa_1" xmlns="http://www.w3.org/2000/svg" xmlns:xlink="http://www.w3.org/1999/xlink" x="0px" y="0px"
	 viewBox="0 0 316.6 106.5" style="enable-background:new 0 0 316.6 106.5;" xml:space="preserve">
<style type="text/css">
	.st0{fill:#123387;}
	.st1{fill:#374D96;}
	.st2{fill:#FFFFFF;}
</style>
<path class="st0" d="M296.3,35.3c-0.1,0.9-0.2,1.8-0.4,2.6c-1.2,4.7-4.9,8.2-10.3,8.2c-5.8,0.1-9.5-3.4-10.7-8
	c-1.7-6.7,2-12.7,7.8-13.8c6.3-1.1,11.6,1.1,13.4,8.4c0.1,0.6,0.2,1.2,0.2,1.8C296.3,34.9,296.3,35.1,296.3,35.3z M290.7,35.1
	c0-0.8,0-1.5,0-2.3c-0.1-1.7-0.4-3.4-1.2-5c-1.6-3.2-5.8-3.5-7.8-0.5c-0.5,0.7-0.8,1.5-1.1,2.3c-1,3.7-1,7.4,0,11.1
	c0.3,1.4,0.9,2.7,2.1,3.6c2.5,1.8,5.7,0.8,7-2.2C290.6,39.7,290.7,37.4,290.7,35.1z"/>
<path class="st0" d="M122.4,48.9c-3.7,0.1-7-0.3-9.8-2.8c-1.8-1.6-2.7-3.8-3.3-6.1c-0.8-3.5-0.6-6.8,0.8-10.1c1-2.4,2.9-4,5.3-4.9
	c3.3-1.3,6.6-1.6,10-0.3c3.2,1.2,5.4,3.4,6.5,6.7c1.1,3.5,1.1,6.9-0.1,10.3c-1,2.9-2.8,5.2-5.7,6.3c1,3.3,3.6,4.2,6.1,2.3
	c0.2-0.1,0.5-0.2,0.7-0.2c-0.1,0.3-0.1,0.6-0.2,0.8c-1.1,1.2-2.5,2.1-4.2,2.5c-2.2,0.5-5.3-1.5-5.9-3.7
	C122.6,49.3,122.5,49.1,122.4,48.9z M125.3,45.5c1-1,1.7-2.2,2.1-3.6c0.7-2.2,0.9-4.4,0.6-6.7c-0.4-2.7-1-5.2-2.6-7.4
	c-2.1-2.9-5.7-3.6-8.5-1.6c-1.5,1.1-2.3,2.5-2.8,4.2c-1.2,4.3-0.5,8.5,1.4,12.5c0.2,0.4,0.5,0.8,0.8,1.3c1-2.5,2.1-3.3,4-3.1
	c1.2,0.1,2.2,0.8,3,1.7C123.9,43.8,124.5,44.6,125.3,45.5z M121.8,47.7c0.1-0.1,0.2-0.2,0.2-0.3c-0.5-1.3-1-2.7-2.2-3.7
	c-0.2-0.2-0.5-0.2-0.7-0.2c-0.7-0.1-1.4,0.4-1.7,1.2c-0.3,0.8-0.1,1.6,0.7,1.9C119.3,47,120.6,47.3,121.8,47.7z"/>
<path class="st0" d="M207,24.6c3.9,0,7.7,0,11.6,0c1.1,0,2.3,0.2,3.3,0.5c2.2,0.6,3.8,2.7,3.8,4.9c0.1,2.8-1.1,4.5-3.6,5.4
	c-0.3,0.1-0.6,0.2-1,0.4c2,2.8,3.9,5.7,5.9,8.4c0.3,0.4,0.9,0.6,1.3,0.9c0.2,0.1,0.4,0.3,0.6,0.4c0,0.1-0.1,0.2-0.1,0.3
	c-0.6,0-1.2,0-1.7,0c-0.7,0-1.4-0.1-2,0c-2,0.4-3.2-0.5-4.2-2.2c-1.3-2.3-3-4.4-4.4-6.6c-0.5-0.7-1-1-1.9-0.7c0,0.7,0,1.4,0,2.1
	c0,1.4,0,2.9,0,4.3c0,2,0.4,2.5,2.4,2.6c0.2,0,0.3,0.1,0.5,0.3c-3.5,0.3-7,0.2-10.5,0c0.1-0.1,0.2-0.3,0.3-0.3
	c0.4-0.1,0.8-0.1,1.2-0.2c0.7-0.2,1.1-0.6,1.2-1.3c0.1-0.6,0.1-1.1,0.1-1.7c0-4.6,0-9.2,0-13.8c0-0.3,0-0.6,0-0.8
	c-0.1-1.8-0.4-2.1-2.1-2.3c-0.3,0-0.5-0.2-0.8-0.2C206.9,24.7,206.9,24.6,207,24.6z M214.5,35c1.1-0.1,2.1-0.1,3-0.2
	c1.2-0.1,2.2-0.7,2.7-1.8c0.3-0.6,0.5-1.3,0.5-1.9c0.1-1.6,0-3.3-1.3-4.4c-1.3-1.1-2.9-1-4.5-0.9c-0.1,0-0.3,0.3-0.3,0.5
	C214.5,29,214.5,31.9,214.5,35z"/>
<path class="st0" d="M229.3,24.5c3.5,0,7,0,10.5,0c0,0.1,0,0.1,0.1,0.2c-0.2,0.1-0.3,0.2-0.5,0.2c-0.4,0.1-0.8,0.1-1.2,0.2
	c-0.7,0.1-1.2,0.5-1.3,1.3c0,0.4-0.1,0.7-0.1,1.1c0,4,0,8.1,0,12.1c0,0.2,0,0.4,0,0.6c0.1,2.7,1.4,4.2,3.6,4.3
	c3.1,0.1,5.2-1.4,5.4-4.1c0.2-2.8,0.2-5.5,0.2-8.3c0-1.5,0-2.9,0-4.4c0-1.8-0.5-2.4-2.2-2.7c-0.3,0-0.5-0.2-0.7-0.3
	c0-0.1,0-0.1,0.1-0.2c2.3,0,4.6,0,7.2,0c-0.2,0.2-0.3,0.4-0.5,0.4c-2.1,0.1-2.5,1.2-2.6,3.2c0,3.3,0,6.6,0,9.9
	c0,1.2-0.1,2.3-0.3,3.5c-0.3,1.6-1.3,2.8-2.7,3.5c-2.9,1.7-6,1.7-9,0.3c-2.3-1-3.3-3-3.3-5.4c-0.1-4.1-0.1-8.2-0.1-12.2
	c0-0.4,0-0.7-0.1-1.1c-0.1-1-0.5-1.3-1.5-1.5C230.1,25,229.5,25.3,229.3,24.5z"/>
<path class="st0" d="M147.2,24.5c2.3,0,4.6,0,7,0c0,0.1,0.1,0.1,0.1,0.2c-0.1,0.1-0.3,0.3-0.4,0.3c-2,0.2-2.5,1.3-2.5,3.1
	c0,3.2,0,6.3,0,9.5c0,1.1-0.1,2.3-0.2,3.4c-0.3,2.1-1.6,3.6-3.5,4.4c-2.5,1.2-5.2,1.2-7.8,0.2c-2.8-1-3.9-3.3-4-6.2
	c0-3.8,0-7.7,0-11.5c0-0.3,0-0.6,0-0.8c-0.1-1.4-0.5-1.7-1.9-2c-0.3,0-0.6-0.2-0.9-0.2c0-0.1,0-0.2,0.1-0.3c3.5,0,7,0,10.8,0
	c-0.3,0.2-0.5,0.4-0.6,0.4c-2,0-2.7,0.3-2.6,3c0,3.7,0,7.4,0,11.1c0,0.8,0.1,1.7,0.2,2.5c0.2,1.4,1.4,2.6,2.8,2.8
	c3.4,0.6,6.1-1.3,6.2-4.8c0.1-3.9,0.2-7.9,0.1-11.8c0-1.9-0.5-2.6-2.4-2.8c-0.2,0-0.4-0.1-0.6-0.2C147.1,24.7,147.2,24.6,147.2,24.5
	z"/>
<path class="st0" d="M184.8,24.5c3.5,0,7,0,10.5,0c0,0.1,0.1,0.1,0.1,0.2c-0.2,0.1-0.3,0.3-0.5,0.3c-2,0.1-2.6,0.2-2.6,3
	c0,3.8,0,7.7,0,11.5c0,0.8,0.1,1.5,0.2,2.3c0.3,1.6,1.7,2.6,3.2,2.8c3.8,0.4,5.7-2.2,5.7-5c0.1-4,0.2-7.9,0.1-11.9
	c0-1.5-0.5-2.5-2.3-2.6c-0.2,0-0.4-0.2-0.7-0.3c0-0.1,0.1-0.2,0.1-0.2c2.3,0,4.6,0,6.9,0c0,0.1,0.1,0.1,0.1,0.2
	c-0.2,0.1-0.3,0.2-0.5,0.3c-1.8,0.4-2.3,0.8-2.3,2.7c-0.1,3.5,0,6.9-0.1,10.4c0,1.1-0.1,2.3-0.3,3.4c-0.6,2.4-2.3,3.8-4.6,4.5
	c-1.9,0.5-3.9,0.6-5.9,0c-2.5-0.7-4.1-2.4-4.5-5.1c-0.1-0.8-0.2-1.6-0.2-2.4c0-3.6,0-7.2,0-10.9c0-1.9-0.3-2.2-2.1-2.5
	c-0.2,0-0.4-0.1-0.6-0.2C184.7,24.7,184.7,24.6,184.8,24.5z"/>
<path class="st0" d="M181.4,24.1c0,2.3,0,4.6,0,7c-0.5,0.2-0.6-0.2-0.7-0.6c-0.5-2.1-1.6-3.7-3.6-4.7c-1.1-0.6-2.2-0.6-3.3-0.4
	c-1.1,0.2-1.8,1-2.1,2.1c-0.3,1.2,0.2,2.2,1.1,2.8c1.4,0.9,2.9,1.7,4.3,2.6c1.1,0.7,2.3,1.3,3.3,2.1c2,1.5,2.7,3.7,2.2,6.1
	c-0.5,2.6-2.2,4.1-4.7,4.9c-1.9,0.6-3.7,0.4-5.5-0.3c-0.4-0.1-0.7-0.3-1.1-0.4c-0.9-0.4-1.5-0.1-2.1,0.6c-0.2,0.2-0.3,0.4-0.7,0.7
	c0-2.9,0-5.5,0-8.2c0.1,0,0.1-0.1,0.2-0.1c0.1,0.3,0.3,0.5,0.4,0.8c0.6,2.2,1.6,4.1,3.6,5.3c1.2,0.7,2.5,0.9,3.9,0.7
	c1.2-0.2,2.1-1,2.5-2.2c0.4-1.4-0.1-2.6-1.1-3.4c-1-0.8-2.3-1.4-3.4-2.1c-1.4-0.9-2.9-1.7-4.2-2.8c-1.8-1.5-2.4-3.6-1.8-5.9
	c0.5-2.3,2.1-3.7,4.3-4.4c1.7-0.5,3.4-0.3,5,0.5c0.3,0.2,0.7,0.3,1,0.5c1.1,0.5,1.4,0.4,1.8-0.8c0.1-0.2,0.2-0.3,0.4-0.5
	C181.2,24,181.3,24,181.4,24.1z"/>
<path class="st0" d="M271.2,41c0.2,1.1-0.1,1.9-0.9,2.6c-2.8,2.5-6,2.9-9.6,2.3c-6.4-1.2-9.3-7.2-8.2-12.5c1-4.9,3.9-8,8.8-9.2
	c2.2-0.5,4.4-0.2,6.5,0.7c0.4,0.1,0.7,0.3,1.1,0.4c1.2,0.4,1.6,0.2,2.1-0.9c0.1-0.2,0.2-0.3,0.4-0.4c0.1,0.2,0.3,0.3,0.3,0.5
	c0,2.2,0,4.3,0,6.5c0,0.1-0.2,0.3-0.3,0.4c-0.1-0.1-0.3-0.2-0.4-0.3c-0.2-0.5-0.3-1-0.5-1.5c-1.1-2.6-3.4-4.2-6.1-4.1
	c-2.6,0-4.7,1.6-5.7,4.3c-1.4,3.7-1.2,7.4,0.1,11.1c1.6,4.6,7.1,4.7,10,2.4C269.5,42.6,270.3,41.8,271.2,41z"/>
<path class="st0" d="M155.5,24.5c3.5,0,7,0,10.6,0c0,0.1,0,0.1,0.1,0.2c-0.2,0.1-0.3,0.2-0.5,0.2c-2.1,0.3-2.4,0.6-2.4,2.7
	c0,5,0,9.9,0,14.9c0,2.1,0.4,2.5,2.5,2.7c0.1,0,0.3,0.1,0.4,0.4c-3.5,0-7.1,0-10.6,0c0,0-0.1-0.1-0.1-0.1c0.2-0.1,0.3-0.2,0.5-0.2
	c2.1-0.1,2.4-0.9,2.4-2.6c0-5,0-10,0-15c0-2-0.4-2.4-2.4-2.6c-0.2,0-0.4-0.2-0.5-0.2C155.4,24.7,155.5,24.6,155.5,24.5z"/>
<path d="M218.6,67.6c-0.4-1.3-0.6-2.8-2.2-3.1c-1.2-0.3-2.5-0.3-3.9-0.4c0,2,0,3.8,0,5.7c2.5,0.3,2.5-1.7,3.1-3.3
	c0.1,0,0.1,0.1,0.2,0.1c0,2.5,0,4.9,0,7.4c-0.1,0-0.1,0.1-0.2,0.1c-0.1-0.3-0.2-0.5-0.3-0.8c-0.3-1.8-1.2-2.7-2.8-2.5
	c0,1.6,0,3.3,0,4.9c0,0.6,0.4,1,1.1,0.9c0.8,0,1.6,0,2.4-0.2c1.6-0.2,2.6-1.3,3.2-2.8c0.1-0.3,0.3-0.5,0.4-0.8
	c0.1,0,0.2,0.1,0.3,0.1c-0.2,1.5-0.4,3-0.6,4.4c-4.1,0-8.2,0-12.3,0c0-0.1,0-0.1,0-0.2c0.3-0.1,0.5-0.1,0.8-0.2
	c0.8-0.1,1.2-0.6,1.2-1.4c0-3.6,0-7.1,0-10.7c0-0.8-0.5-1.2-1.2-1.3c-0.3,0-0.5,0-0.9-0.1c0.5-0.5,9.5-0.6,11.9-0.3
	c0,1.4,0,2.8,0,4.2C218.8,67.6,218.7,67.6,218.6,67.6z"/>
<path d="M244.9,69c1,1.2,1.2,2.4,0.5,3.5c-0.7,1.4-2,1.9-3.5,2c-0.5,0.1-1.1-0.1-1.5,0c-0.4,0.1-0.6,0.6-0.9,0.9
	c0.3,0.3,0.5,0.7,0.8,0.8c1.2,0.1,2.5,0.1,3.7,0.2c1.5,0.1,2.4,0.8,2.7,2c0.2,1.1-0.4,2.5-1.7,3c-2.2,0.9-4.4,0.9-6.6,0.2
	c-0.7-0.2-1.3-0.7-1.3-1.5c0-0.7,0.6-1.1,1.2-1.4c0.1,0,0.1-0.1,0.2-0.1c-1.7-1.7-1.4-2.8,1-4.4c-1-0.5-1.9-1.1-2.3-2.3
	c-0.5-1.8,0.5-3.7,2.4-4.3c0.8-0.2,1.7-0.2,2.5-0.2c1.2,0,2.5,0.2,3.7,0.3c0.2,0,0.4,0,0.7,0c0,0.4,0,0.7,0,1.2
	C246.1,69,245.6,69,244.9,69z M243,71.1c-0.1-0.7-0.1-1.4-0.3-2c-0.1-0.4-0.7-0.9-1-0.9c-0.4,0-1,0.4-1.1,0.8
	c-0.5,1.3-0.5,2.7-0.1,4c0.1,0.4,0.7,0.8,1.1,0.8c0.4,0,0.9-0.4,1.1-0.8C242.9,72.4,242.9,71.7,243,71.1z M241.9,78.9
	C241.9,79,241.9,79,241.9,78.9c-0.6,0.1-1.3,0-1.9,0.1c-0.4,0.1-0.9,0.4-0.9,0.8c-0.1,0.3,0.3,0.8,0.6,1.1c0.3,0.2,0.7,0.4,1.1,0.4
	c1.2-0.1,2.3-0.1,3.5-0.4c0.3-0.1,0.6-0.6,0.7-1c0-0.2-0.4-0.6-0.7-0.7C243.4,79,242.7,79,241.9,78.9z"/>
<path d="M180.6,77.4c1.9-0.6,1.9-0.4,1.9-2.7c0-3.5,0-6.9,0-10.4c-1,0-2.2-0.3-2.9,0.5c-0.6,0.7-1,1.6-1.7,2.3c0-1.2,0-2.5,0-3.8
	c0.2,0,0.5-0.1,0.7-0.1c3.8,0,7.5,0,11.3,0c0.7,0,0.9,0.2,0.8,0.9c0,1,0,2-0.2,3.1c-0.1-0.1-0.4-0.3-0.4-0.4
	c-0.6-2.5-1.9-2.7-4.1-2.5c0,0.3,0,0.5,0,0.8c0,3.4,0,6.8,0,10.2c0,1.5,0.1,1.6,1.7,1.9c0.1,0,0.2,0.1,0.3,0.3
	C185.5,77.4,183,77.4,180.6,77.4z"/>
<path d="M262.6,67.7c0,0.3,0,0.6,0.1,0.9c0.7-0.4,1.4-0.9,2.2-1.1c1.7-0.5,3.2,0.7,3.2,2.5c0.1,1.5,0,2.9,0.1,4.4
	c0.1,1.1-0.5,2.4,1,3c-1.6,0-3.3,0-4.9,0c0-0.1,0-0.2,0-0.2c1-0.5,0.9-1.4,0.9-2.2c0-1.6,0-3.2,0-4.8c0-0.6,0-1.2-0.8-1.3
	c-0.7-0.1-1.6,0.7-1.6,1.3c0,2,0,3.9,0,5.9c0,0.4,0.5,0.8,0.8,1.2c-1.6,0-3.2,0-4.9,0c0-0.1,0-0.1,0-0.2c1.1-0.4,1-1.3,1-2.2
	c0-1.8,0-3.6,0-5.3c0-0.8,0-1.4-1-1.6c0,0,0-0.1-0.1-0.3C259.9,67.7,261.2,67.7,262.6,67.7z"/>
<path d="M190,67.7c1.4,0,2.7,0,4.1,0c0,0.5,0,1,0,1.5c0,2,0,3.9,0,5.9c0,0.4,0.3,1.1,0.5,1.1c0.4,0.1,1-0.1,1.3-0.4
	c0.5-0.4,0.7-0.9,0.7-1.6c-0.1-1.4,0-2.9,0-4.3c0-0.8,0-1.6-1.1-1.8c0.4-0.4,1.7-0.5,4-0.3c0,0.3,0,0.6,0,0.9c0,1.9,0,3.8,0,5.7
	c0,1.1-0.5,2.4,1.2,3c-0.1,0-0.1,0.1-0.2,0.1c-1.3,0-2.6,0-3.9,0c0-0.3-0.1-0.6-0.1-1c-0.2,0.2-0.4,0.3-0.5,0.4
	c-1,0.9-2.1,1.3-3.4,0.8c-1.3-0.5-1.6-1.7-1.7-3c0-1.6,0-3.3,0-4.9c0-0.7,0-1.5-0.9-1.6C190.1,68.1,190.1,67.9,190,67.7z"/>
<path d="M257.5,76.1c-0.6,1-1.4,1.6-2.6,1.5c-0.9-0.1-1.4-0.6-1.7-1.4c-0.7,0.4-1.4,0.9-2.2,1.2c-1.1,0.5-2.1,0.2-2.7-0.6
	c-0.6-0.8-0.5-2.1,0.4-2.9c0.8-0.8,1.9-1.3,2.9-1.9c0,0,0.1,0,0.1,0c1.6-0.8,1.8-1.1,1.4-2.8c-0.1-0.3-0.6-0.8-1-0.8
	c-0.5-0.1-1,0.2-1.5,0.4c0,0,0.1,0.5,0.2,0.7c0.4,0.6,0.6,1.1,0.1,1.7c-0.6,0.6-1.3,0.6-1.9,0.3c-0.6-0.3-1-0.9-0.7-1.6
	c0.3-0.6,0.7-1.2,1.3-1.6c1.3-1,4.3-1.3,5.6-0.1c0.6,0.5,1,1.1,1,2c0,1.7,0,3.3,0,5c0,1,0,1,1,0.9C257.3,75.9,257.4,76.1,257.5,76.1
	z M253.2,72.1c-0.5,0.3-0.8,0.5-1.1,0.8c-0.6,0.5-1.2,1.1-1,2c0.1,0.6,0.4,0.9,1,0.9c0.5,0,1.1-0.1,1.1-0.9
	C253.2,74,253.2,73.2,253.2,72.1z"/>
<path d="M295.6,76.1c-0.6,1-1.4,1.6-2.7,1.5c-0.9-0.1-1.4-0.6-1.6-1.3c-0.9,0.4-1.7,0.9-2.5,1.2c-0.8,0.3-1.6,0.1-2.2-0.5
	c-0.6-0.6-0.8-1.4-0.3-2.2c0.3-0.5,0.7-1.1,1.1-1.4c1-0.7,2.1-1.3,3.2-1.8c0.5-0.2,0.6-0.5,0.6-1c0-0.3,0-0.7,0-1
	c0-0.5-0.1-1-0.6-1.1c-0.5-0.1-1.1-0.1-1.6,0.1c-0.4,0.1-0.4,0.5-0.1,0.9c0.6,0.9,0.6,1.4,0,1.9c-0.6,0.5-1.5,0.5-2.1,0
	c-0.6-0.5-0.7-1.2-0.2-1.9c0.7-1.2,1.9-1.7,3.2-1.9c0.8-0.1,1.8,0,2.6,0.2c1.2,0.3,1.8,1.3,1.9,2.5c0,1.6,0,3.3,0,4.9c0,1,0,1,1,0.8
	C295.3,75.9,295.4,76,295.6,76.1z M291.2,72.2c-1.4,0.6-2.3,1.7-2.1,2.7c0.1,0.3,0.6,0.8,0.9,0.8c0.5,0.1,1.1-0.1,1.2-0.8
	C291.3,74,291.2,73.2,291.2,72.2z"/>
<path d="M226.7,77.4c-1.8,0-3.6,0-5.3,0c0-0.1,0-0.1,0-0.1c1.3-0.4,1.2-1.5,1.2-2.5c0-3.1,0-6.2,0-9.2c0-0.9,0.1-1.9-1.3-2
	c1.5-0.4,2.8-0.2,4.3-0.3c0,0.4,0,0.7,0,1c0,3.4,0,6.9,0,10.3c0,1.1-0.4,2.3,1.3,2.7C226.8,77.3,226.8,77.4,226.7,77.4z"/>
<path d="M235.9,72.3c-1,0-1.8,0-2.7,0c-0.8,0-1.7,0-2.6,0c0,1.4,0.4,2.6,1.5,3.5c1,0.8,2.1,0.4,3.1-0.8c0.1-0.1,0.3-0.2,0.5-0.3
	c0,0.2,0.1,0.4,0,0.6c-0.9,1.9-2.7,2.9-4.7,2.5c-1.8-0.4-3.2-2-3.3-4c-0.1-1.4-0.1-2.8,0.7-4c1.3-2.2,4-3,5.8-1.5
	C235.6,69.2,235.9,70.6,235.9,72.3z M230.4,71.5c1.1,0,2,0,3,0c-0.1-0.9-0.2-1.8-0.4-2.6c-0.1-0.3-0.6-0.6-0.9-0.7
	c-0.3,0-0.8,0.3-0.9,0.6C230.8,69.6,230.6,70.5,230.4,71.5z"/>
<path d="M275.2,67.4c1.2-0.1,2.2,0.4,2.9,1.4c0.4,0.6,0.6,1.3,0.1,1.9c-0.3,0.3-0.9,0.5-1.4,0.5c-0.7,0-1.1-0.6-1.2-1.3
	c0-0.2-0.1-0.4-0.1-0.6c0-0.5-0.2-1.1-0.8-1c-0.4,0-0.9,0.5-1,0.8c-0.7,2.1-0.5,4.2,0.8,6c0.8,1.2,2.2,1.2,3.4,0.2
	c0.2-0.2,0.4-0.2,0.7-0.3c-0.1,0.2-0.1,0.5-0.2,0.7c-1,1.4-2.3,2.2-4,2c-1.7-0.2-2.8-1.2-3.5-2.7c-1.1-2.5-0.3-5.6,1.8-7
	c0.7-0.4,1.6-0.6,2.4-0.9C275.2,67.3,275.2,67.3,275.2,67.4z"/>
<path d="M279.4,77.2c1.7-0.2,1.4-1.3,1.4-2.3c0-1.7,0-3.3,0-5c0-0.9-0.1-1.7-1.2-1.8c0.3-0.4,2.6-0.6,4.3-0.3c0,1.1,0,2.2,0,3.3
	c0,1.4,0,2.7,0,4.1c0,0.9-0.2,2,1.3,2.1c-0.1,0.1-0.1,0.1-0.2,0.2c-1.8,0-3.6,0-5.3,0C279.6,77.3,279.5,77.2,279.4,77.2z"/>
<path d="M284,64.6c0,0.9-0.8,1.7-1.7,1.7c-0.9,0-1.7-0.8-1.6-1.7c0-0.9,0.8-1.6,1.7-1.6C283.3,63,284,63.7,284,64.6z"/>
<g>
	<g>
		<polygon class="st1" points="15.8,38.3 55.8,85.8 96.2,38.3 81,20.9 31,20.9 		"/>
		<polygon class="st0" points="17.9,38.1 55.8,83.9 94.1,38.1 79.7,21.4 32.3,21.4 		"/>
		<rect x="17.9" y="37.3" class="st1" width="77" height="1.8"/>
		<rect x="27.1" y="59.5" transform="matrix(0.235 0.972 -0.972 0.235 97.1028 -2.5226)" class="st1" width="46.2" height="1.8"/>
		<polygon class="st1" points="56.5,84.3 70.5,37.6 68.4,37.3 54.8,83.7 		"/>
		
			<rect x="27.7" y="29.3" transform="matrix(0.6259 0.7799 -0.7799 0.6259 37.9016 -18.6883)" class="st1" width="21.4" height="1.8"/>
		
			<rect x="53.1" y="29" transform="matrix(0.6259 0.7799 -0.7799 0.6259 47.1457 -38.5808)" class="st1" width="21.4" height="1.8"/>
		
			<rect x="40.2" y="29.3" transform="matrix(-0.6259 0.7799 -0.7799 -0.6259 106.3458 9.3188)" class="st1" width="21.4" height="1.8"/>
		
			<rect x="63.4" y="29.3" transform="matrix(-0.6259 0.7799 -0.7799 -0.6259 144.0173 -8.7508)" class="st1" width="21.4" height="1.8"/>
	</g>
	<path class="st2" d="M57.6,57.7c-2-0.2-4-0.3-5.8-0.7c-3.5-0.7-5.9-2.9-7.3-6.2c-1.5-3.7-1.6-7.5-0.4-11.3c1.1-3.3,3.4-5.3,6.6-6.4
		c4-1.4,7.9-1.4,11.7,0.5c3.6,1.9,5.3,5,5.9,8.9c0.4,2.6,0,5.2-0.8,7.7c-1,3-2.9,5.3-6,6.4c0.9,3,3.6,4.2,6.1,2.5
		c0.3-0.2,0.7-0.3,1.1-0.4c-0.2,0.4-0.3,0.8-0.5,1.1c-1.3,1.3-2.9,2.2-4.7,2.3c-2.3,0.2-5.1-1.8-5.8-4
		C57.7,57.9,57.6,57.7,57.6,57.7z M60.6,54c1.5-1.6,2.4-3.2,2.7-6c0.5-3.8-0.2-7.5-2.1-10.9c-1.2-2.1-3-3.5-5.5-3.6
		c-3.1-0.1-5.6,1.8-6.6,4.9c-1.1,3.3-0.9,6.6,0,9.8c0.4,1.6,1,3.1,2.1,4.6c0.4-1.7,1.3-2.8,3-3.1c1.4-0.2,2.7,0.1,3.7,1.1
		C58.7,51.8,59.6,52.9,60.6,54z M57.2,56.1c-0.2-0.4-0.3-0.6-0.4-0.9c-0.5-0.9-1-1.9-1.7-2.7c-0.3-0.3-1.1-0.5-1.6-0.4
		c-0.7,0.1-1.1,0.8-1.2,1.5c-0.1,0.6,0.2,1.1,0.7,1.4C54.3,55.8,55.6,56,57.2,56.1z"/>
</g>
</svg>
